# xmcd CD database file
# Copyright (C) 1997 Ti Kan
# 
# Track frame offsets:
#     150
#     17155
#     26844
#     41737
#     51172
#     64910
#     75932
#     87270
#     95932
#     109695
#     122810
#     136930
#     144555
#     162602
#     174067
#     185402
#     196807
#     211490
#     224740
#     236670
#     250490
#     259530
#     272527
# 
# Disc length: 3716 seconds
# 
# Revision: 1
# Processed by: cddbd v1.4b41PL1 Copyright (c) Steve Scherf et al.
# Submitted via: DiscPlay 4.0.2
# 
DISCID=530e8217
DTITLE=The Yale Alley Cats - Swingin' Cat
DYEAR=1900
DGENRE=
TTITLE0=Muskrat Ramble/Sally in Our Alley
TTITLE1=Down for Double
TTITLE2=Drifters Medley
TTITLE3=Lullabye of Birdland
TTITLE4=The Scotsman
TTITLE5=Crazy She Calls Me
TTITLE6=On a Slow Boat to China
TTITLE7=Manhattan
TTITLE8=Begin the Beguine
TTITLE9=let That Cat Outta the Bag
TTITLE10=Round Midnight
TTITLE11=Satin Doll
TTITLE12=How Long Has This Been Going On?
TTITLE13=Haven't We Met?
TTITLE14=You Go to My head
TTITLE15=My Old Man
TTITLE16=Lush Life
TTITLE17=Spiderman
TTITLE18=Shenandoah
TTITLE19=Take the A Train
TTITLE20=My Romance
TTITLE21=Coconut
TTITLE22=Bonus Dedication
EXTD=
EXTT0=
EXTT1=
EXTT2=
EXTT3=
EXTT4=
EXTT5=
EXTT6=
EXTT7=
EXTT8=
EXTT9=
EXTT10=
EXTT11=
EXTT12=
EXTT13=
EXTT14=
EXTT15=
EXTT16=
EXTT17=
EXTT18=
EXTT19=
EXTT20=
EXTT21=
EXTT22=
PLAYORDER=
